<svg xmlns="http://www.w3.org/2000/svg" width="17.074" height="17.106" viewBox="0 0 17.074 17.106">
  <path id="Icon_feather-phone" data-name="Icon feather-phone" d="M19.24,15.058v2.424A1.616,1.616,0,0,1,17.479,19.1,15.993,15.993,0,0,1,10.5,16.617a15.759,15.759,0,0,1-4.849-4.849A15.993,15.993,0,0,1,3.174,4.762,1.616,1.616,0,0,1,4.783,3H7.207A1.616,1.616,0,0,1,8.823,4.39a10.377,10.377,0,0,0,.566,2.271,1.616,1.616,0,0,1-.364,1.705L8,9.392a12.93,12.93,0,0,0,4.849,4.849l1.026-1.026a1.616,1.616,0,0,1,1.705-.364,10.377,10.377,0,0,0,2.271.566,1.616,1.616,0,0,1,1.39,1.641Z" transform="translate(-2.667 -2.5)" fill="none" stroke="#fff" stroke-linecap="round" stroke-linejoin="round" stroke-width="1"/>
</svg>




